<?xml version="1.0" encoding="UTF-8"?>
<svg width="1165px" height="52px" viewBox="0 0 1165 52" version="1.1" xmlns="http://www.w3.org/2000/svg" xmlns:xlink="http://www.w3.org/1999/xlink">
    <!-- Generator: Sketch 54.1 (76490) - https://sketchapp.com -->
    <title>Group 4</title>
    <desc>Created with Sketch.</desc>
    <g id="Visuals" stroke="none" stroke-width="1" fill="none" fill-rule="evenodd" stroke-linecap="square">
        <g id="0.1-Desktop---Homepage-Copy-4" transform="translate(-82.000000, -4989.000000)" stroke="#1a1a1a">
            <g id="desktop/next-step" transform="translate(0.000000, 4592.000000)">
                <g id="customer-journey" transform="translate(82.000000, 330.000000)">
                    <g id="Group-4" transform="translate(0.000000, 68.000000)">
                        <path d="M0.5,50.5 L1164.36144,50.5" id="Line-7"></path>
                        <path d="M40.5,50.5 L40.5,0" id="Line-10"></path>
                        <path d="M157.5,50.5 L157.5,25" id="Line-10" opacity="0.5"></path>
                        <path d="M316.5,50.5 L316.5,0" id="Line-10"></path>
                        <path d="M641.5,50.5 L641.5,0" id="Line-10"></path>
                        <path d="M972.5,50.5 L972.5,0" id="Line-10"></path>
                        <g id="Group-10" transform="translate(18.000000, 0.000000)">
                            <path d="M0.5,50.5 L0.5,25.25" id="Line-11" opacity="0.5"></path>
                            <path d="M40.5,50.5 L40.5,25.25" id="Line-11" opacity="0.5"></path>
                            <path d="M61.5,50.5 L61.5,25.25" id="Line-11" opacity="0.5"></path>
                            <path d="M81.5,50.5 L81.5,25.25" id="Line-11" opacity="0.5"></path>
                            <path d="M102.5,50.5 L102.5,25.25" id="Line-11" opacity="0.5"></path>
                            <path d="M122.5,50.5 L122.5,25.25" id="Line-11" opacity="0.5"></path>
                            <path d="M157.5,50.5 L157.5,0.5" id="Line-11"></path>
                            <path d="M177.5,50.5 L177.5,25.25" id="Line-11" opacity="0.5"></path>
                            <path d="M197.5,50.5 L197.5,25.25" id="Line-11" opacity="0.5"></path>
                            <path d="M215.5,50.5 L215.5,25.25" id="Line-11" opacity="0.5"></path>
                            <path d="M235.5,50.5 L235.5,25.25" id="Line-11" opacity="0.5"></path>
                            <path d="M258.5,50.5 L258.5,25.25" id="Line-11" opacity="0.5"></path>
                            <path d="M278.5,50.5 L278.5,25.25" id="Line-11" opacity="0.5"></path>
                            <path d="M298.5,50.5 L298.5,25.25" id="Line-11" opacity="0.5"></path>
                            <path d="M318.5,50.5 L318.5,25.25" id="Line-11" opacity="0.5"></path>
                            <path d="M338.5,50.5 L338.5,25.25" id="Line-11" opacity="0.5"></path>
                            <path d="M358.5,50.5 L358.5,25.25" id="Line-11" opacity="0.5"></path>
                            <path d="M378.5,50.5 L378.5,25.25" id="Line-11" opacity="0.5"></path>
                            <path d="M398.5,50.5 L398.5,25.25" id="Line-11" opacity="0.5"></path>
                            <path d="M418.5,50.5 L418.5,25.25" id="Line-11" opacity="0.5"></path>
                            <path d="M438.5,50.5 L438.5,25.25" id="Line-11" opacity="0.5"></path>
                            <path d="M458.5,50.5 L458.5,25.25" id="Line-11" opacity="0.5"></path>
                            <path d="M478.5,50.5 L478.5,25.25" id="Line-11" opacity="0.5"></path>
                            <path d="M498.5,50.5 L498.5,25.25" id="Line-11" opacity="0.5"></path>
                            <path d="M518.5,50.5 L518.5,25.25" id="Line-11" opacity="0.5"></path>
                            <path d="M538.5,50.5 L538.5,25.25" id="Line-11" opacity="0.5"></path>
                            <path d="M558.5,50.5 L558.5,25.25" id="Line-11" opacity="0.5"></path>
                            <path d="M578.5,50.5 L578.5,25.25" id="Line-11" opacity="0.5"></path>
                            <path d="M598.5,50.5 L598.5,25.25" id="Line-11" opacity="0.5"></path>
                            <path d="M647.5,50.5 L647.5,25.25" id="Line-11" opacity="0.5"></path>
                            <path d="M667.5,50.5 L667.5,25.25" id="Line-11" opacity="0.5"></path>
                            <path d="M687.5,50.5 L687.5,25.25" id="Line-11" opacity="0.5"></path>
                            <path d="M707.5,50.5 L707.5,25.25" id="Line-11" opacity="0.5"></path>
                            <path d="M727.5,50.5 L727.5,25.25" id="Line-11" opacity="0.5"></path>
                            <path d="M747.5,50.5 L747.5,25.25" id="Line-11" opacity="0.5"></path>
                            <path d="M767.5,50.5 L767.5,25.25" id="Line-11" opacity="0.5"></path>
                            <path d="M787.5,50.5 L787.5,25.25" id="Line-11" opacity="0.5"></path>
                            <path d="M807.5,50.5 L807.5,25.25" id="Line-11" opacity="0.5"></path>
                            <path d="M827.5,50.5 L827.5,25.25" id="Line-11" opacity="0.5"></path>
                            <path d="M847.5,50.5 L847.5,25.25" id="Line-11" opacity="0.5"></path>
                            <path d="M867.5,50.5 L867.5,25.25" id="Line-11" opacity="0.5"></path>
                            <path d="M887.5,50.5 L887.5,25.25" id="Line-11" opacity="0.5"></path>
                            <path d="M907.5,50.5 L907.5,25.25" id="Line-11" opacity="0.5"></path>
                            <path d="M927.5,50.5 L927.5,25.25" id="Line-11" opacity="0.5"></path>
                            <path d="M977.5,50.5 L977.5,25.25" id="Line-11" opacity="0.5"></path>
                            <path d="M997.5,50.5 L997.5,25.25" id="Line-11" opacity="0.5"></path>
                            <path d="M1017.5,50.5 L1017.5,25.25" id="Line-11" opacity="0.5"></path>
                            <path d="M1037.5,50.5 L1037.5,25.25" id="Line-11" opacity="0.5"></path>
                            <path d="M1057.5,50.5 L1057.5,25.25" id="Line-11" opacity="0.5"></path>
                            <path d="M1077.5,50.5 L1077.5,25.25" id="Line-11" opacity="0.5"></path>
                            <path d="M1097.5,50.5 L1097.5,25.25" id="Line-11" opacity="0.5"></path>
                            <path d="M1117.5,50.5 L1117.5,25.25" id="Line-11" opacity="0.5"></path>
                            <path d="M1137.5,50.5 L1137.5,25.25" id="Line-11" opacity="0.5"></path>
                        </g>
                    </g>
                </g>
            </g>
        </g>
    </g>
</svg>