<?xml version="1.0" encoding="utf-8" ?>
<!DOCTYPE svg PUBLIC "-//W3C//DTD SVG 1.1//EN" "http://www.w3.org/Graphics/SVG/1.1/DTD/svg11.dtd">
<svg xmlns="http://www.w3.org/2000/svg" width="57.904" height="45.495" viewBox="0 0 57.904 45.495"><g id="Group_8506" data-name="Group 8506" transform="translate(0 0)"><g id="surface1"><path id="Path_2840" data-name="Path 2840" d="M2985.587,569.817v37.224h26.884v4.136h-10.34v4.135h24.816v-4.135h-10.34v-4.136h26.884V569.817Zm4.136,4.136h49.631V602.9h-49.631Z" transform="translate(-2985.587 -569.817)" fill="#265c8d"/></g><g id="surface566" transform="translate(15.284 5.007)"><path id="Path_25525" data-name="Path 25525" d="M14.287,2.25,14,2.5,7.891,8.561H3.75V22.985H18.935a2.717,2.717,0,0,0,2.648-2.141l1.944-9.015a2.724,2.724,0,0,0-2.648-3.268H15.7l.169-.676a2.06,2.06,0,0,0,.563-.563,4.476,4.476,0,0,0,.845-2.676,2.53,2.53,0,0,0-2.62-2.395Zm.648,1.888c.38.075.535.23.535.507a2.632,2.632,0,0,1-.479,1.634,1.216,1.216,0,0,1-.394.394l-.31.169-.113.366-.535,2.028-.282,1.127h7.522a.884.884,0,0,1,.873,1.1l-1.916,9.015a.9.9,0,0,1-.9.7H9.159V9.829ZM5.553,10.364h1.8V21.182h-1.8Zm0,0" fill="#265c8d"/></g></g></svg>