<?xml version="1.0" encoding="utf-8" ?>
<!DOCTYPE svg PUBLIC "-//W3C//DTD SVG 1.1//EN" "http://www.w3.org/Graphics/SVG/1.1/DTD/svg11.dtd">
<svg xmlns="http://www.w3.org/2000/svg" id="surface1" width="56.529" height="44.415" viewBox="0 0 56.529 44.415"><path id="Path_2833" data-name="Path 2833" d="M2985.586,352.644v36.34h26.246v4.038h-10.095v4.037h24.227v-4.037H3015.87v-4.038h26.246v-36.34Zm4.038,4.038h48.453v28.264h-48.453Zm18.2,24.271a3,3,0,0,1-2.122-5.125l7.236-7.236a6.2,6.2,0,0,1,7.7-7.669l.4,1.563-2.267,2.268.289,1.961,1.961.29,2.268-2.268,1.563.4a6.2,6.2,0,0,1-7.669,7.7l-7.236,7.236A2.981,2.981,0,0,1,3007.827,380.953Zm10.454-18.358a4.327,4.327,0,0,0-3.394,5.9l-.207,1.012-7.649,7.649a1.129,1.129,0,0,0,0,1.594,1.153,1.153,0,0,0,1.594,0l7.65-7.649,1.012-.207a4.326,4.326,0,0,0,5.9-3.394l-1.167,1.167-.8.264-3.116-.46-.79-.79-.461-3.116.265-.8Z" transform="translate(-2985.586 -352.644)" fill="#265c8d"/></svg>